<?xml version="1.0" standalone="no"?>
<!DOCTYPE svg PUBLIC "-//W3C//DTD SVG 20010904//EN"
 "http://www.w3.org/TR/2001/REC-SVG-20010904/DTD/svg10.dtd">
<svg version="1.0" xmlns="http://www.w3.org/2000/svg"
 width="512.000000pt" height="512.000000pt" viewBox="0 0 512.000000 512.000000"
 preserveAspectRatio="xMidYMid meet">

<g transform="translate(0.000000,512.000000) scale(0.100000,-0.100000)"
fill="#000000" stroke="none">
<path d="M2320 5109 c-491 -47 -981 -246 -1366 -557 -599 -482 -954 -1224
-954 -1992 0 -577 204 -1155 568 -1606 482 -599 1224 -954 1992 -954 577 0
1155 204 1606 568 599 482 954 1224 954 1992 0 577 -204 1155 -568 1606 -433
538 -1071 879 -1767 944 -125 11 -340 11 -465 -1z m-125 -1465 c84 -21 139
-56 220 -138 78 -78 125 -160 125 -216 0 -39 -40 -130 -125 -280 -49 -87 -55
-103 -65 -190 -6 -52 -13 -201 -17 -330 -9 -379 21 -519 110 -497 48 13 173
106 312 235 l140 130 22 116 c28 145 59 239 129 385 132 277 334 495 586 631
204 110 437 147 594 94 138 -46 195 -164 165 -339 -16 -88 -48 -150 -105 -203
-38 -35 -52 -42 -86 -42 -50 0 -99 20 -150 60 -161 128 -311 50 -416 -217 -63
-159 -100 -383 -92 -561 3 -85 7 -104 31 -145 53 -89 163 -145 303 -154 181
-12 277 46 570 343 175 177 206 204 233 204 131 0 98 -304 -62 -548 -166 -255
-464 -447 -768 -497 -117 -19 -313 -19 -400 -1 -147 32 -304 114 -396 208 -36
37 -105 139 -116 171 -2 6 -31 -16 -65 -48 -146 -139 -350 -261 -512 -305 -98
-27 -213 -36 -269 -20 -95 25 -190 158 -229 317 -9 40 -19 73 -22 72 -3 0 -30
-34 -60 -76 -79 -108 -200 -211 -313 -263 -103 -49 -207 -71 -357 -77 -170 -7
-268 11 -389 69 -120 57 -232 170 -289 289 -57 120 -67 171 -66 334 6 565 243
1010 687 1288 48 31 118 67 155 81 222 85 536 99 704 32 l56 -23 31 44 c33 47
84 83 116 83 12 0 48 -7 80 -16z"/>
<path d="M1785 3269 c-273 -77 -559 -311 -674 -553 -98 -204 -124 -522 -56
-662 47 -96 138 -134 269 -114 168 26 320 149 413 336 60 119 71 172 77 379 5
202 23 372 56 530 11 53 20 99 20 101 0 8 -37 2 -105 -17z"/>
</g>
</svg>
